# Blender 4.0.2
# www.blender.org
mtllib bucket.mtl
o Cube
v -0.765200 -1.189314 2.750342
v -1.019552 0.655976 2.548478
v -0.765200 -1.189314 -2.668899
v -1.019552 0.655976 -2.467034
v 1.019552 -0.655976 2.548478
v 0.074010 -0.045832 2.548478
v 1.019552 -0.655976 -2.467034
v 0.074010 -0.045832 -2.467034
v -1.189314 0.765200 2.750342
v -1.189314 0.765200 -2.668899
v 0.074010 -0.045832 -2.668899
v 1.189314 -0.765200 -2.668899
v 1.189314 -0.765200 2.750342
v 0.074010 -0.045832 2.750342
vn -0.9773 -0.2121 -0.0000
vn -0.0000 -0.0000 -1.0000
vn -0.0000 -0.0000 1.0000
vn 0.2121 -0.9773 -0.0000
vn 0.5411 0.8410 -0.0000
vn 0.5402 0.8416 0.0005
vn 0.5421 0.8403 0.0006
vn 0.5421 0.8403 -0.0006
vn 0.5402 0.8416 -0.0005
vt 0.375000 0.000000
vt 0.625000 0.000000
vt 0.625000 0.250000
vt 0.375000 0.250000
vt 0.625000 0.500000
vt 0.375000 0.500000
vt 0.375000 0.750000
vt 0.625000 0.750000
vt 0.625000 1.000000
vt 0.375000 1.000000
vt 0.125000 0.500000
vt 0.125000 0.750000
vt 0.840711 0.740688
vt 0.840711 0.509312
vt 0.875000 0.500000
vt 0.875000 0.750000
vt 0.621195 0.509312
vt 0.412250 0.509312
vt 0.412250 0.740688
vt 0.621195 0.740688
s 0
usemtl Material.001
f 1/1/1 9/2/1 10/3/1 3/4/1
f 3/4/2 10/3/2 11/5/2 12/6/2
f 13/7/3 14/8/3 9/9/3 1/10/3
f 3/11/4 12/6/4 13/7/4 1/12/4
f 2/13/5 4/14/5 10/15/5 9/16/5
f 4/14/6 8/17/6 11/5/6 10/15/6
f 8/17/7 7/18/7 12/6/7 11/5/7
f 7/18/5 5/19/5 13/7/5 12/6/5
f 5/19/8 6/20/8 14/8/8 13/7/8
f 6/20/9 2/13/9 9/16/9 14/8/9
